<?xml version="1.0" encoding="UTF-8"?>
<svg id="Layer_2" data-name="Layer 2" xmlns="http://www.w3.org/2000/svg" viewBox="0 0 891.62 708.37">
  <defs>
    <style>
      .cls-1 {
        fill: #fff;
      }

      .cls-2 {
        fill: #eaa192;
      }
    </style>
  </defs>
  <g id="Layer_1-2" data-name="Layer 1">
    <g>
      <path class="cls-2" d="m410.32,0v.94c-.63,9.4-2.2,14.1-4.7,14.1v1.88h1.88v1.88c0,1.26-.63,1.88-1.88,1.88,0-.62-.32-.94-.94-.94v1.88h1.88l-.94,4.7v5.64h-1.88v2.82c0,2.04.31,3.61.94,4.7-1.26,5.64-1.88,13.16-1.88,22.57v2.82l2.82,3.76c1.09,0,3.6-.62,7.52-1.88l.94,1.88v13.16c0,1.57-3.45,2.82-10.34,3.76v-1.88c0-3.13.31-7.83.94-14.1l-1.88-.94h-2.82v.94c1.88,0,2.82.63,2.82,1.88v14.1c-1.57,2.2-8.15,4.7-19.74,7.52v.94h.94c20.21-5.01,33.38-7.52,39.49-7.52v6.58h.94c0-5.64.94-8.46,2.82-8.46l3.76-.94.94,1.88c-.63,3.29-.94,5.17-.94,5.64v1.88h.94c.78-6.89,2.04-10.34,3.76-10.34h5.64c0,8.78-1.88,13.16-5.64,13.16l-72.4,29.15v.94h.94c12.22-4.38,36.35-11.28,72.4-20.68,0-.62.31-.94.94-.94h2.82c11.59-3.76,20.06-5.64,25.39-5.64v.94h1.88l-.94-1.88c19.43-4.39,34.16-6.58,44.19-6.58l.94,1.88c-11.75,1.88-18.02,2.82-18.8,2.82,0-.62-.32-.94-.94-.94,0,1.26-5.64,2.82-16.92,4.7-1.26-.62-2.2-.94-2.82-.94,0,1.57-8.78,4.39-26.33,8.46-16.77,6.27-47.48,19.43-92.14,39.49v.94h.94l59.23-19.74c2.03,0,3.6-.31,4.7-.94l.94,1.88v.94c-3.76,2.67-22.56,11.75-56.41,27.27,0,.94-9.72,5.96-29.15,15.04v.94h.94c22.88-9.4,50.46-19.43,82.74-30.09,0-.62.31-.94.94-.94l.94,1.88v.94c-.32.94-11.28,5.96-32.91,15.04-6.58,4.08-26.95,14.73-61.11,31.97v.94h.94c30.87-12.85,54.69-22.25,71.46-28.21.15-1.25.78-1.88,1.88-1.88h1.88c.62,0,.94.32.94.94l3.76-2.82h2.82c0-1.25,3.13-2.51,9.4-3.76h.94v2.82c-.16,1.1-7.68,4.55-22.56,10.34l-75.22,40.43v.94h1.88c30.56-13.63,47.48-21.47,50.77-23.51.62,0,.94.32.94.94l19.74-8.46,21.62-8.46h2.82v.94c-.94,1.26-12.54,6.9-34.79,16.92l-70.52,41.37v.94h.94l68.64-32.91v.94c9.4-4.86,20.68-9.87,33.85-15.04h1.88v.94c-1.1,1.73-8.62,5.49-22.56,11.28-26.33,14.42-56.1,32.6-89.32,54.53v.94h1.88c35.88-20.37,68.48-36.98,97.78-49.83,0,.63.31.94.94.94,0-1.88,4.07-4.07,12.22-6.58l.94,1.88c-2.35,2.35-13.95,8.31-34.79,17.86-23.19,15.04-50.15,33.22-80.86,54.53v.94h.94c46.38-27.58,81.8-47.01,106.24-58.29,0-.62.31-.94.94-.94l1.88.94c.31-1.25,1.88-2.5,4.7-3.76l.94,1.88-54.53,29.15c-29.62,20.84-52.18,37.46-67.7,49.83,24.13-14.73,52.65-31.65,85.56-50.77,4.23-3.45,11.75-6.89,22.57-10.34,1.56-1.41,5.95-3.92,13.16-7.52h3.76v1.88c0,1.26-8.78,5.64-26.33,13.16-26.48,14.57-62.21,39.96-107.18,76.16v.94h1.88c1.41-2.03,25.23-18.02,71.46-47.95l1.88.94c0-2.82,14.42-10.97,43.25-24.45,2.97,0,7.68-2.5,14.1-7.52,4.23-2.51,7.99-3.76,11.28-3.76h2.82v1.88c-5.17,0-12.38,3.14-21.62,9.4-25.23,11.13-49.99,25.54-74.28,43.25-30.71,24.29-48.89,39.33-54.53,45.13h.94c47.64-34.47,82.42-56.73,104.36-66.75v1.88c-26.48,12.85-60.64,37.92-102.48,75.22-6.74,5.33-10.19,8.46-10.34,9.4h.94c11.44-9.71,29.93-23.19,55.47-40.43,19.9-14.26,39.64-26.8,59.23-37.61,18.33-8.93,29.3-14.89,32.91-17.86.78,0,3.29-2.5,7.52-7.52-4.55,0-13.95,3.45-28.21,10.34h-.94c.31-1.56,10.66-7.21,31.03-16.92.62,0,3.76-3.13,9.4-9.4v-.94l-1.88.94h-.94v-1.88c8.3,0,15.2-9.09,20.69-27.27,2.5-2.5,4.38-3.76,5.64-3.76v-.94c-3.14,0-4.7-.62-4.7-1.88,0-1.41,5.95-6.11,17.86-14.1v-1.88c-7.99,1.26-13.01,1.88-15.04,1.88v-1.88c8.15,0,16.61-4.7,25.39-14.1h-11.28v-1.88c7.21,0,15.04-4.38,23.51-13.16h-10.34v-1.88c4.39,0,11.59-3.45,21.62-10.34v-.94c-2.2,0-5.02-.31-8.46-.94v-1.88c5.33,0,11.91-3.76,19.74-11.28-1.41,0-4.86-.31-10.34-.94v-1.88c5.95,0,13.79-3.76,23.5-11.28l-.94-1.88v-1.88c.78-1.56,6.42-5.01,16.92-10.34v-1.88c-7.37-1.88-11.44-2.82-12.22-2.82v-1.88h7.52c5.79,0,12.38-3.13,19.74-9.4v-.94l-5.64-1.88v-1.88l5.64-3.76,1.88.94c10.03-4.7,15.04-7.52,15.04-8.46-3.76-1.25-5.64-2.51-5.64-3.76v-.94c4.07-1.88,7.21-2.82,9.4-2.82,6.89,8.15,10.34,14.1,10.34,17.86l-.94,3.76c.62,1.1.94,2.35.94,3.76h.94v-1.88h1.88v2.82l-1.88,2.82v5.64l.94,6.58h.94l2.82-1.88c2.35,2.51,5.8,12.54,10.34,30.09,2.97,7.05,5.17,15.2,6.58,24.45v9.4h-1.88c-6.9-16.61-15.04-38.55-24.45-65.81,0-.62.31-.94.94-.94l-.94-1.88v-.94c1.56,0,2.5-1.25,2.82-3.76-.79-3.76-1.73-5.64-2.82-5.64v1.88h-1.88l-.94-4.7.94-1.88-.94-1.88.94-5.64v-1.88h-.94c-6.27,8.15-9.4,13.16-9.4,15.04v1.88c0,1.41.31,2.67.94,3.76l-.94,1.88,1.88,4.7c-.63,6.74-1.26,10.81-1.88,12.22,1.25,2.04,1.88,3.61,1.88,4.7h.94v-6.58h1.88c.62,2.35.94,4.86.94,7.52l3.76-1.88.94,1.88h-1.88v.94c2.04,2.04,3.6,5.17,4.7,9.4l8.46,23.5c-.63,0-.94.32-.94.94,1.72,1.1,8.62,14.89,20.68,41.37,0,.63-.32.94-.94.94l.94,1.88v14.1h-1.88l-16.92-31.97c-19.43-45.44-29.15-69.26-29.15-71.46-.47-.15-2.35-2.97-5.64-8.46v-.94h.94c5.01,4.55,7.52,9.56,7.52,15.04h1.88c0-.62.31-1.56.94-2.82,0-3.91-3.14-9.87-9.4-17.86h-.94c-.79,0-2.35,1.57-4.7,4.7v20.68h-1.88c0-1.88-2.51-5.33-7.52-10.34l1.88-2.82h-.94l-10.34,11.28v.94h.94v-1.88h2.82v.94l-.94,9.4c1.72,0,3.92,4.39,6.58,13.16,2.82,1.26,4.39,2.51,4.7,3.76v1.88l-4.7-3.76v.94c1.25,2.51,1.88,4.7,1.88,6.58l1.88-.94h1.88v1.88l-1.88-.94v.94c2.66,1.57,7.05,10.97,13.16,28.21,7.52,16.92,16.92,34.79,28.21,53.59h-.94l14.1,18.8c-2.51,16.3-5.02,24.45-7.52,24.45-3.76-5.64-8.46-13.79-14.1-24.45-.79,0-2.35-1.56-4.7-4.7l.94-1.88c-24.45-48.26-37.3-80.54-38.55-96.84,0-1.41.31-2.66.94-3.76,0-6.42-3.45-12.38-10.34-17.86l-1.88-.94c-12.38,14.26-23.66,26.8-33.85,37.61-32.75,40.27-56.57,72.87-71.46,97.78h.94c3.13-4.86,4.7-7.68,4.7-8.46,1.09,0,2.66,5.33,4.7,15.98,1.09,0,2.35,3.14,3.76,9.4l1.88-.94c1.09,0,3.29,5.02,6.58,15.04,1.25.16,1.88.79,1.88,1.88l-.94,1.88c2.35,1.88,4.86,6.27,7.52,13.16,5.64,8.78,8.46,14.42,8.46,16.92-.63,0-.94.32-.94.94h.94c0-.62.31-.94.94-.94,10.18,16.14,18.33,27.42,24.45,33.85v2.82c-1.57,0-7.21.94-16.92,2.82l-26.33-47.01.94-1.88c-3.76-3.92-9.09-16.14-15.98-36.67l.94-1.88c-2.04-7.68-5.17-12.69-9.4-15.04-.16,1.1-1.73,3.61-4.7,7.52v.94h.94v-1.88h1.88c.47,5.49,2.66,13.32,6.58,23.51l1.88-.94v.94c-.63,1.26-.94,2.2-.94,2.82l1.88-.94c11.28,25.86,21.62,46.23,31.03,61.11-.63,0-.94.32-.94.94,3.45,3.76,5.64,5.64,6.58,5.64v2.82h-9.4c-7.99-8.62-21.78-35.88-41.37-81.8.78,0,2.98,3.14,6.58,9.4v-.94c-3.29-9.4-6.11-14.1-8.46-14.1-.47,0-1.41.94-2.82,2.82,0,10.19,3.76,20.84,11.28,31.97-.63,1.1-.94,2.35-.94,3.76l1.88-.94c.94.16,3.76,6.43,8.46,18.8,11.28,18.65,16.92,28.99,16.92,31.03h-8.46c-10.81-13.79-20.84-31.97-30.09-54.53l.94-1.88c-2.35-7.36-5.17-11.75-8.46-13.16-1.88,3.14-2.82,5.33-2.82,6.58,0,2.82,2.82,10.97,8.46,24.45l1.88-.94c1.41,0,2.97,3.45,4.7,10.34l16.92,27.27c0,1.26-4.39,2.51-13.16,3.76-7.37-12.69-13.95-25.23-19.75-37.61h-.94v-.94l1.88-2.82-1.88.94c-.63,0-2.2-2.5-4.7-7.52v-.94c3.13,1.88,4.7,4.08,4.7,6.58h.94v-2.82c-1.73-4.23-3.92-7.05-6.58-8.46h-.94c0,1.57-.63,3.14-1.88,4.7v.94c0,5.33,2.19,12.54,6.58,21.62l1.88-.94c0,1.1,5.01,10.81,15.04,29.15v.94c-3.14,4.23-4.7,7.05-4.7,8.46h-.94c-5.02-6.27-11.28-18.18-18.8-35.73l.94-1.88c0-4.23-2.2-7.99-6.58-11.28h-.94c0,1.88-.63,2.82-1.88,2.82,0,7.21,3.44,15.36,10.34,24.45l-.94,1.88c1.41,1.26,5.17,7.84,11.28,19.75-.63,1.26-.94,2.2-.94,2.82l1.88-.94h.94c0,1.73.94,3.61,2.82,5.64,0,.63-.32.94-.94.94l3.76,20.68v6.58h-.94c-5.96-7.99-15.67-27.11-29.15-57.35v-.94h1.88c0-5.01-1.88-8.77-5.64-11.28h-.94c-1.26.16-1.88.79-1.88,1.88v4.7c1.72,9.4,3.6,14.1,5.64,14.1l-.94,1.88c.62,1.1.94,2.35.94,3.76l1.88-.94v.94l-.94,1.88c2.19,0,3.76,2.2,4.7,6.58-.63,1.26-.94,2.2-.94,2.82l1.88-.94c4.38,8.31,6.58,13.01,6.58,14.1v2.82c1.88,0,4.7,4.08,8.46,12.22-.63,0-.94.32-.94.94,1.25.63,2.19.94,2.82.94l-.94,1.88c1.25.63,2.19.94,2.82.94l-.94,1.88,6.58,5.64h-.94l.94,1.88v7.52c0,.94.62,5.96,1.88,15.04v3.76h-.94c-4.86-8.15-8.31-12.22-10.34-12.22l-.94,1.88c.62,0,5.01,5.64,13.16,16.92-.79,14.42-2.67,21.62-5.64,21.62h-1.88c-9.72-18.33-15.98-29.3-18.8-32.91,0-.62.31-.94.94-.94-6.74-13-13.95-31.5-21.62-55.47l.94-1.88c0-6.74-2.2-11.44-6.58-14.1h-.94l-.94,6.58v.94c0,7.84,3.13,16.92,9.4,27.27,0,2.51.62,4.7,1.88,6.58v2.82c7.52,16.3,11.28,24.76,11.28,25.38h-.94c0,1.26,1.56,2.51,4.7,3.76.15,3.92,7.05,14.89,20.68,32.91v.94c-4.39,4.55-9.72,7.37-15.98,8.46h-1.88l-9.4-24.45h-5.64l14.1,23.51v1.88l-4.7.94h-12.22c-4.39-7.83-8.78-23.5-13.16-47.01-3.76-15.67-5.64-25.39-5.64-29.15h.94v-6.58c-2.51,0-3.76-.62-3.76-1.88v-1.88c1.25,0,1.88.94,1.88,2.82h.94v-1.88c-1.88-2.98-2.82-4.86-2.82-5.64h-1.88v.94l-.94,11.28c.62,1.1.94,2.35.94,3.76h-1.88c0-5.64-.94-8.46-2.82-8.46v-.94c2.5-3.6,3.76-6.11,3.76-7.52h-.94l-5.64,3.76v-.94c8.15-7.52,12.22-12.85,12.22-15.98-18.33,8.46-44.04,32.91-77.1,73.34-11.91,16.92-18.18,25.39-18.8,25.39-4.39-3.13-6.58-6.58-6.58-10.34v-20.68c0-.62.62-3.13,1.88-7.52v-33.85l-1.88-2.82v-20.68c0-1.72.62-3.6,1.88-5.64-1.26-2.04-1.88-3.92-1.88-5.64v-.94c0-.62.62-3.13,1.88-7.52v-80.86l-1.88-2.82v-57.35c0-.62.62-3.13,1.88-7.52v-28.21l-1.88-2.82v-35.73c0-.62.62-3.13,1.88-7.52v-37.61c0-.62.62-3.13,1.88-7.52v-15.04c0-.62-.63-3.13-1.88-7.52v-6.58c6.89-30.09,13.16-49.83,18.8-59.23h5.64c-2.82,10.66-5.02,15.98-6.58,15.98l.94,4.7c0,1.88-.94,2.82-2.82,2.82,0,2.04.31,3.61.94,4.7,0,1.73-.94,4.55-2.82,8.46,0,.63.31,1.57.94,2.82-1.88,8.31-2.82,16.14-2.82,23.5v5.64h.94c0-10.97,5.33-34.47,15.98-70.52h5.64l1.88.94c-1.41,4.39-2.67,6.58-3.76,6.58l.94,1.88c-1.88,9.72-3.45,15.36-4.7,16.92v.94c-1.88,20.84-2.82,33.38-2.82,37.61v3.76h.94c0-11.91,4.39-34.47,13.16-67.7l1.88-.94h3.76c0,6.27-.94,9.4-2.82,9.4,0,.63.31,1.57.94,2.82,0,5.02-.94,7.52-2.82,7.52l.94,3.76c-1.26,10.34-1.88,18.49-1.88,24.45v17.86h.94c0-14.26,3.13-35.88,9.4-64.87l1.88-.94h4.7c1.25.16,1.88.79,1.88,1.88,0,3.14-.94,4.7-2.82,4.7.62,3.29.94,5.17.94,5.64,0,5.64-.94,8.46-2.82,8.46v6.58c0,2.51.31,3.76.94,3.76l-.94,6.58v30.09h.94c2.03-39.96,5.17-62.52,9.4-67.7h3.76c1.25.16,1.88.79,1.88,1.88,0,1.88-.94,2.82-2.82,2.82,0,.63.31,1.57.94,2.82-.47,11.75-1.41,18.96-2.82,21.62,0,.63.31,1.57.94,2.82l-.94,5.64v1.88c0,1.88.31,2.82.94,2.82l-.94,3.76c.62,15.2.94,24.92.94,29.15h.94c0-26.64,2.5-51.71,7.52-75.22h6.58c1.25.16,1.88.79,1.88,1.88h-1.88v1.88h1.88c-.63,3.76-1.26,5.64-1.88,5.64.62,1.26.94,2.2.94,2.82,0,1.88-.94,2.82-2.82,2.82,0,4.08.31,7.21.94,9.4-.63,11.6-.94,21.94-.94,31.03v9.4l.94,9.4h.94c1.88-47.95,4.7-72.71,8.46-74.28h4.7v3.76h-1.88l.94,6.58c0,3.14-.94,4.7-2.82,4.7v1.88h1.88c-1.26,9.4-2.2,14.1-2.82,14.1h-.94c0,2.04.31,3.61.94,4.7-.63,8.15-.94,14.73-.94,19.74v5.64c0,1.41-.32,2.67-.94,3.76.62,1.26.94,2.2.94,2.82l-.94,1.88c.62,1.26.94,2.2.94,2.82h.94c4.38-48.89,8.46-73.34,12.22-73.34h3.76v2.82h-1.88v1.88h1.88c-1.88,11.28-3.45,16.92-4.7,16.92l.94,1.88v5.64h-1.88l.94,4.7c-1.26,6.58-2.2,21.62-2.82,45.13v3.76h.94c1.41-22.25,3.29-37.29,5.64-45.13,0-.62-.32-.94-.94-.94,4.07-25.07,6.89-37.61,8.46-37.61h3.76c1.25,0,2.19,1.88,2.82,5.64,0,4.23-1.57,10.81-4.7,19.74l.94,9.4-.94,1.88c0,.63.31.94.94.94-1.26,8.93-1.88,18.65-1.88,29.15v15.04h.94c1.88-32.59,5.64-59.86,11.28-81.8h5.64c1.25.16,1.88.79,1.88,1.88,0,1.26-.63,4.39-1.88,9.4l-1.88-.94v1.88h1.88c-1.26,9.4-2.2,14.1-2.82,14.1h-.94l.94,6.58c0,7.52-.63,11.28-1.88,11.28,0,.63.31.94.94.94l-.94,4.7v25.39h1.88v-1.88l-.94-4.7c1.25,0,1.88-.62,1.88-1.88,0-.62-.32-1.56-.94-2.82,3.76-30.4,7.21-51.4,10.34-62.99,2.5-1.25,4.7-1.88,6.58-1.88Zm-135.39,8.46h1.88v1.88c-1.41,0-2.35,1.88-2.82,5.64h-.94c.62,1.26.94,2.2.94,2.82-3.76,7.21-6.9,18.8-9.4,34.79h-1.88v-22.56c4.07-15.04,8.15-22.56,12.22-22.56Zm-8.46,456.94h.94c34.16-37.61,61.43-64.56,81.8-80.86,13.79-8.62,21.94-15.83,24.45-21.62v-.94h-1.88c-13.48,4.23-41.06,28.99-82.74,74.28l-22.57,29.15Zm3.76-15.98h.94c49.83-52.02,82.11-81.8,96.84-89.32,5.17-3.13,9.56-7.83,13.16-14.1v-.94c-18.96,7.52-47.8,31.97-86.5,73.34l-24.45,31.03Zm80.86-53.59c-37.77,37.92-59.39,63.31-64.87,76.16-.47,0-2.98,3.14-7.52,9.4l-7.52-3.76c15.36-19.9,36.98-43.4,64.88-70.52l8.46-7.52c1.09-2.5,3.29-3.76,6.58-3.76Zm-78.04,0h.94c43.25-36.35,78.04-61.74,104.36-76.16,9.24-2.66,17.71-8.93,25.39-18.8v-.94c-8.78,1.41-27.58,11.44-56.41,30.09-17.86,11.6-42.62,33.54-74.28,65.81Zm0,32.91h.94c46.69-44.5,79.6-72.08,98.72-82.74,5.33-2.35,10.34-7.05,15.04-14.1v-.94c-13.48,3.14-41.37,24.13-83.68,62.99l-31.03,34.79Zm.94-47.95h.94c57.35-46.07,100.6-75.22,129.75-87.44,5.01-4.23,8.46-7.99,10.34-11.28h-.94c-9.25,1.26-30.25,12.22-63,32.91-19.9,13.48-45.6,35.42-77.1,65.82Zm145.73-112.83l-1.88-.94-15.98,7.52c-3.92,0-26.17,13.48-66.75,40.43-23.19,19.43-43.25,36.98-60.17,52.65h.94c19.59-15.83,43.09-33.06,70.52-51.71,10.5-7.68,22.09-14.89,34.79-21.62,7.21-4.86,19.12-11.12,35.73-18.8l9.4-10.34h-.94c-3.76.63-5.64,1.57-5.64,2.82Zm-143.85-191.8v1.88h.94v-1.88h-.94Zm2.82,331.89h.94c53.59-47.17,88.69-74.12,105.3-80.86,5.48-4.23,9.25-7.99,11.28-11.28v-.94h-.94c-19.27,7.37-47.17,27.11-83.68,59.23l-32.91,33.85Zm61.11,6.58v.94c-21.47,25.86-37.77,48.42-48.89,67.7h-.94c-4.39-1.41-6.58-2.35-6.58-2.82,10.03-15.2,28.83-37.14,56.41-65.81Zm.94,8.46v1.88c-20.06,33.54-30.09,52.03-30.09,55.47-1.26,2.51-2.2,3.76-2.82,3.76h-10.34c-1.26,0-1.88-.62-1.88-1.88,18.96-27.27,34-47.01,45.13-59.23Zm-31.03-188.98v.94h1.88v-.94h-1.88Zm33.85,195.56v.94c-.94,5.02-1.88,7.52-2.82,7.52.62,1.26.94,2.2.94,2.82-.94,2.51-1.88,3.76-2.82,3.76l.94,1.88c-1.26,1.26-2.82,7.21-4.7,17.86-3.29,12.54-5.49,18.8-6.58,18.8h-13.16l-1.88-.94c9.56-19.43,19.59-36.98,30.09-52.65Zm10.34-20.68h1.88c-1.26,8.62-1.88,16.14-1.88,22.57,0,.63.31,1.57.94,2.82l-.94,5.64v3.76c0,1.41.31,2.67.94,3.76-.63,1.1-.94,2.35-.94,3.76,1.25.16,1.88.79,1.88,1.88v15.04c0,1.41.31,2.67.94,3.76l-.94,1.88c0,1.1.62,2.98,1.88,5.64,0,1.88-2.2,3.14-6.58,3.76l-1.88-.94-5.64.94h-1.88c-.63,0-.94-.31-.94-.94l-1.88.94h-4.7v-.94c5.01-23.98,10.66-43.4,16.92-58.29-.63,0-.94-.31-.94-.94,2.5,0,3.76-4.7,3.76-14.1Zm-3.76,11.28h1.88v.94h-1.88v-.94Zm4.7-15.04h1.88v1.88h-1.88v-1.88Zm4.7,7.52h1.88v3.76c2.5,8.31,3.76,13.32,3.76,15.04l-.94,1.88c1.25.16,1.88.79,1.88,1.88l-.94,4.7c1.41,0,3.29,5.02,5.64,15.04v3.76c.47,0,2.35,3.45,5.64,10.34v.94c-1.26,0-1.88.32-1.88.94,3.13,6.27,4.7,10.03,4.7,11.28l-1.88.94h-15.04c-2.51,0-3.76-16.61-3.76-49.83v-11.28l-.94-4.7c1.25,0,1.88-1.56,1.88-4.7Zm7.52-32.91c0,1.26-.32,1.88-.94,1.88,0,.63.31.94.94.94l-.94,4.7v1.88c0,6.11,1.56,11.44,4.7,15.98,0,4.39,3.13,15.98,9.4,34.79v3.76c1.72,0,2.97,2.2,3.76,6.58,1.25,0,2.82,1.57,4.7,4.7h1.88c0-3.13-1.26-4.7-3.76-4.7l.94-3.76c-6.27-16.14-11.6-33.38-15.98-51.71l.94-4.7c-.94-6.89-2.51-10.34-4.7-10.34h-.94Zm10.34-6.58c1.25.16,1.88.79,1.88,1.88v.94h-1.88v-2.82Zm4.7-23.5c-.63,1.1-.94,2.35-.94,3.76v4.7c0,1.26,1.25,6.58,3.76,15.98l1.88-.94.94,1.88-.94,4.7,1.88-.94c0,1.26,3.76,10.66,11.28,28.21-.63,1.26-.94,2.2-.94,2.82l1.88-.94c1.25,1.88,1.88,4.39,1.88,7.52l1.88-.94c.31,3.14,1.25,4.7,2.82,4.7l-.94,1.88,4.7,2.82,1.88-2.82v-2.82c-2.98,0-10.81-17.55-23.51-52.65,0-2.5-.94-3.76-2.82-3.76v-3.76l1.88.94v-.94c0-6.27-2.2-9.4-6.58-9.4Zm8.46-10.34c2.5,1.26,3.76,3.14,3.76,5.64h-1.88l-1.88-5.64Zm.94-260.44v2.82h.94v-2.82h-.94Zm0,4.7v1.88h.94v-1.88h-.94Zm7.52,240.69h.94c1.25.16,1.88.79,1.88,1.88v1.88c-.94,0-1.88-1.25-2.82-3.76ZM417.85,0h3.76c1.25,0,1.88.94,1.88,2.82l-.94,6.58h-1.88v-1.88h-.94v4.7h1.88c-.63,2.51-.94,4.7-.94,6.58h-.94l-1.88-.94.94,9.4c0,2.51-.94,3.76-2.82,3.76,0,1.41.31,2.67.94,3.76,0,.63-.32.94-.94.94l.94,4.7c-1.26,5.02-1.88,8.15-1.88,9.4v6.58h1.88c0-2.19.94-4.07,2.82-5.64l-1.88-2.82v-.94h2.82c0-.62-.32-.94-.94-.94,4.23-25.38,7.99-40.43,11.28-45.13h2.82c1.25.16,1.88.79,1.88,1.88-2.04,9.4-3.61,14.1-4.7,14.1,0-.62-.32-.94-.94-.94,0,.47.31,2.35.94,5.64-.94,8.15-1.88,12.22-2.82,12.22l1.88,3.76c-1.88,0-2.82,1.26-2.82,3.76,1.25.16,1.88.79,1.88,1.88h-2.82v2.82l.94,1.88c-1.26.16-1.88.79-1.88,1.88v10.34c0,1.26-2.2,2.2-6.58,2.82l-.94-1.88c.62-1.25.94-2.19.94-2.82h-2.82c-.79,0-2.04,2.51-3.76,7.52l-6.58.94v-3.76c0-1.41-.32-2.66-.94-3.76.78-3.13,1.72-4.7,2.82-4.7,0-.62-.32-.94-.94-.94,4.86-35.73,8.62-53.59,11.28-53.59Zm-9.4,314.03c1.25.16,1.88.79,1.88,1.88v.94h-1.88v-2.82Zm4.7,110l-.94,1.88v.94c0,.94.94,1.88,2.82,2.82h1.88v-.94c-1.57-3.13-2.82-4.7-3.76-4.7Zm.94-87.44v1.88h.94v-1.88h-.94Zm9.4-271.72l.94,1.88v11.28c0,1.73-3.14,2.98-9.4,3.76,0-10.65,1.88-15.98,5.64-15.98.62,0,1.56-.31,2.82-.94Zm-5.64,230.35h1.88v2.82c-1.26,0-1.88-.62-1.88-1.88v-.94Zm2.82-1.88c.94,0,2.19,1.26,3.76,3.76v2.82c-1.26,0-2.51-2.19-3.76-6.58Zm2.82-251.98v1.88c1.25-.62,2.19-.94,2.82-.94v-.94h-2.82Zm6.58,22.57h1.88l1.88.94c0,8.78-1.88,13.16-5.64,13.16h-.94c0-.62-.32-.94-.94-.94,1.09-8.77,2.35-13.16,3.76-13.16ZM443.23.94h1.88c1.25.16,1.88.79,1.88,1.88-3.29,14.42-6.11,21.62-8.46,21.62,0,.63.31.94.94.94-1.26,2.35-1.88,4.86-1.88,7.52v.94h1.88v1.88l-5.64,4.7c1.25.63,2.19.94,2.82.94v5.64c-1.41,8.15-2.98,12.22-4.7,12.22h-.94c-1.26,0-1.88-.62-1.88-1.88l2.82-12.22c-1.88,0-2.82-.62-2.82-1.88h.94l1.88.94.94-3.76c-.94,0-1.88-.94-2.82-2.82h.94l1.88.94c0-1.25.31-1.88.94-1.88l-1.88-4.7c.78-2.03,2.35-4.23,4.7-6.58,0-.62-.32-.94-.94-.94,3.45-15.67,5.95-23.5,7.52-23.5Zm-13.16,277.36c1.88.63,2.82,2.51,2.82,5.64-1.88-.62-2.82-2.51-2.82-5.64Zm13.16-216.25c0,.63.31.94.94.94,0,8.15-2.82,12.22-8.46,12.22,0-.62-.32-.94-.94-.94.78-8.15,3.29-12.22,7.52-12.22h.94Zm-8.46,275.48v1.88h.94v-1.88h-.94Zm9.4-297.11h1.88l1.88.94c-1.41,10.03-2.98,15.04-4.7,15.04h-3.76v-.94c1.09-10.03,2.66-15.04,4.7-15.04Zm-4.7,190.86h2.82v1.88h-2.82v-1.88Zm0,33.85h1.88v2.82c-1.26,0-1.88-.62-1.88-1.88v-.94Zm13.16-186.16c1.25.63,2.19.94,2.82.94v7.52c0,1.41-4.39,3.29-13.16,5.64,0-.62-.32-.94-.94-.94,0-8.15,3.45-12.22,10.34-12.22,0-.62.31-.94.94-.94Zm-11.28,182.4h.94v1.88h-.94v-1.88Zm6.58-236.93h1.88c1.25.16,1.88.79,1.88,1.88-1.1,6.9-3.61,10.34-7.52,10.34,0-.62-.32-.94-.94-.94,1.88-7.52,3.44-11.28,4.7-11.28Zm-4.7,239.75c1.25.16,1.88.79,1.88,1.88v2.82c-1.26,0-1.88-.62-1.88-1.88v-2.82Zm1.88,4.7h.94v1.88h-.94v-1.88Zm12.22-208.73v3.76c0,4.39-3.76,6.58-11.28,6.58,0-1.56.62-4.7,1.88-9.4l9.4-.94Zm9.4,53.59v1.88l-19.74,4.7h-.94v-.94c9.09-3.13,15.98-5.01,20.68-5.64ZM454.51.94h1.88l1.88.94c-3.29,13.79-6.43,20.68-9.4,20.68l-1.88-.94c3.44-13.79,5.95-20.68,7.52-20.68Zm0,38.55h6.58c-1.57,9.4-4.39,14.1-8.46,14.1h-2.82v-.94c1.25-8.77,2.82-13.16,4.7-13.16Zm4.7,188.04c4.23,20.69,8.3,31.03,12.22,31.03,6.42,16.14,13.95,31.19,22.57,45.13l-1.88,2.82,1.88-.94c.78,0,3.6,4.08,8.46,12.22l-.94,1.88c2.03,0,3.92,2.2,5.64,6.58l18.8,21.62v1.88c-7.52,1.88-12.85,2.82-15.98,2.82-20.53-29.93-37.14-60.02-49.83-90.26,0-1.25-3.14-7.52-9.4-18.8v-1.88c2.97,2.51,5.48,6.58,7.52,12.22h.94v-.94c0-2.35-2.51-7.36-7.52-15.04,3.29-6.27,5.79-9.71,7.52-10.34Zm-8.46,20.69c1.25.16,1.88.79,1.88,1.88v1.88c-1.26,0-1.88-.62-1.88-1.88v-1.88Zm7.52-224.71h5.64v.94c0,6.27-2.82,9.4-8.46,9.4l-.94-1.88c1.56-5.64,2.82-8.46,3.76-8.46Zm43.25,97.78v1.88c-21.94,4.23-32.91,7.05-32.91,8.46-.63,0-.94-.31-.94-.94-5.02,1.26-8.78,1.88-11.28,1.88,0-2.5,15.04-6.27,45.13-11.28Zm-31.03-45.13c1.25.63,2.19.94,2.82.94v5.64c0,1.26-5.02,3.14-15.04,5.64l-.94-1.88c0-5.01,1.25-7.52,3.76-7.52,3.6-1.88,6.74-2.82,9.4-2.82ZM465.8.94h2.82l1.88.94c-3.14,11.28-5.33,16.92-6.58,16.92-1.1.63-2.35.94-3.76.94h-.94v-.94c2.35-11.91,4.54-17.86,6.58-17.86Zm44.19,51.71c1.25.63,2.19.94,2.82.94,1.25-.62,2.19-.94,2.82-.94v.94l1.88-.94h43.25l6.58.94v1.88l-11.28.94h-2.82l-2.82-1.88h-.94c-4.39,1.26-6.9,1.88-7.52,1.88-.47,0-2.98-.62-7.52-1.88h-.94l-2.82,1.88h-.94c-2.67,0-5.17-.62-7.52-1.88-.63,1.88-2.51,2.82-5.64,2.82h-1.88l-2.82-1.88h-2.82c-2.67,2.51-5.8,3.76-9.4,3.76h-1.88v-2.82h-2.82c-2.51,3.29-7.21,5.49-14.1,6.58-.63-1.09-.94-2.66-.94-4.7h-4.7c0,5.64-4.08,8.46-12.22,8.46,0,.63-.32.94-.94.94l-.94-1.88h.94c0-.62-.32-.94-.94-.94l.94-5.64h7.52v-1.88c1.09,0,4.86-.31,11.28-.94,1.25.63,2.19.94,2.82.94,0-1.25,8.77-2.82,26.33-4.7Zm-19.74,84.62v1.88l-28.21,7.52-.94-1.88c9.71-3.76,19.43-6.27,29.15-7.52Zm-21.62,75.22h1.88v.94c3.13,19.43,6.89,29.15,11.28,29.15,4.23,12.85,12.06,29.77,23.5,50.77v.94l-1.88-.94v.94l.94,1.88,1.88-.94c.94,0,5.64,7.21,14.1,21.62.94,0,8.15,8.46,21.62,25.39v1.88c-7.84,2.51-12.22,3.76-13.16,3.76-22.88-32.59-40.12-63.31-51.71-92.14l-5.64-13.16c.62,0,.94-.31.94-.94-3.92-3.6-6.11-7.68-6.58-12.22,1.56,0,3.13,2.51,4.7,7.52h.94v-.94c-.47-4.86-3.29-9.87-8.46-15.04,3.76-4.54,5.64-7.36,5.64-8.46Zm-5.64,13.16c1.25.16,1.88.79,1.88,1.88v.94c-1.26,0-1.88-.62-1.88-1.88v-.94Zm.94,103.42v1.88h.94v-1.88h-.94Zm14.1-292.41c0,8.78-4.08,13.16-12.22,13.16l-.94-1.88v-.94c0-6.27,2.5-9.4,7.52-9.4.47,0,2.35-.31,5.64-.94Zm-12.22-31.03v2.82h.94v-2.82h-.94Zm10.34,147.61v1.88c-5.64,1.26-8.78,1.88-9.4,1.88h-.94v-.94c5.33-1.88,8.77-2.82,10.34-2.82Zm1.88-131.63c0,.63.31.94.94.94,0-.62.31-.94.94-.94l.94,1.88v1.88c0,2.2-3.45,3.76-10.34,4.7l-1.88-.94c0-4.7,3.13-7.21,9.4-7.52Zm-2.82,90.26v1.88l-6.58.94v-1.88l6.58-.94Zm1.88-109.07h1.88c3.45,0,5.33,1.57,5.64,4.7-1.26,2.51-1.88,4.7-1.88,6.58h-.94l-1.88-.94c0,2.51-2.2,3.76-6.58,3.76,0-.62-.32-.94-.94-.94,1.72-8.77,3.29-13.16,4.7-13.16Zm-4.7,211.55h1.88l1.88,6.58c-1.26,0-2.51-2.19-3.76-6.58Zm76.16-144.79h5.64c0,1.41,1.88,2.35,5.64,2.82v.94c-3.14,0-6.9.32-11.28.94,0-1.25-.63-1.88-1.88-1.88h-3.76v1.88h-8.46v-1.88h-4.7c0,1.88-.63,2.82-1.88,2.82h-3.76c0-1.88-.63-2.82-1.88-2.82h-2.82c0,2.67-2.51,4.23-7.52,4.7-.94-2.5-1.88-3.76-2.82-3.76h-.94c-1.41,3.76-5.49,5.64-12.22,5.64-.63-1.09-.94-2.35-.94-3.76h-3.76c0,4.39-3.76,6.9-11.28,7.52-1.88,0-2.82-.31-2.82-.94,0-3.13-1.26-4.7-3.76-4.7,0-1.56,2.5-2.5,7.52-2.82v1.88h1.88c0-1.56,2.5-2.82,7.52-3.76.62,0,.94.32.94.94,17.24-2.5,36.35-3.76,57.35-3.76Zm-65.82,124.11h1.88v8.46c0,1.88,1.88,8.78,5.64,20.68l1.88-.94c1.25.16,1.88.79,1.88,1.88-.63,1.1-.94,2.35-.94,3.76,2.19.79,5.01,7.37,8.46,19.75,1.09.79,5.48,9.87,13.16,27.27,4.38,7.05,6.58,11.13,6.58,12.22l-.94,1.88v.94h.94v-1.88c4.39,5.02,6.58,8.46,6.58,10.34-.63,0-.94.32-.94.94,1.72,0,3.6,1.88,5.64,5.64,2.66,4.55,10.5,14.57,23.5,30.09,0,.63-3.45,3.14-10.34,7.52h-.94c-14.42-18.18-26.95-38.23-37.61-60.17-9.87-18.8-18.33-37.29-25.39-55.47.62-1.25.94-2.19.94-2.82l-1.88.94h-.94c-.32-4.07-2.51-8.77-6.58-14.1v-.94h.94c4.39,3.92,6.58,8.31,6.58,13.16,1.25,0,1.88-.62,1.88-1.88-1.26-6.58-4.08-11.91-8.46-15.98,5.64-6.11,8.46-9.87,8.46-11.28Zm-4.7,86.5v1.88h.94v-1.88h-.94Zm15.04-245.4h12.22c.62,0,.94.32.94.94l1.88-.94h3.76c0,4.39-2.82,6.58-8.46,6.58h-.94c-1.26,0-1.88-.62-1.88-1.88l.94-1.88-1.88-.94h-3.76v2.82l-1.88-.94h-.94v4.7c-5.33,1.26-8.78,1.88-10.34,1.88v-.94l.94-6.58h-1.88v-1.88l9.4.94h1.88v-1.88Zm-3.76,74.28v1.88c-1.57,0-4.08.32-7.52.94v-1.88c.62,0,3.13-.31,7.52-.94Zm-3.76,150.43v1.88h.94v-1.88h-.94Zm6.58-238.81h5.64v1.88c0,1.73-3.14,2.98-9.4,3.76-1.26,0-1.88-.62-1.88-1.88v-.94c.62-1.88,2.5-2.82,5.64-2.82Zm-5.64,176.76c1.88.63,2.82,2.51,2.82,5.64-1.88-.62-2.82-2.5-2.82-5.64Zm9.4-18.8h.94v7.52c2.82,17.55,5.95,26.33,9.4,26.33,1.09,9.25,10.81,31.5,29.15,66.76l-.94,1.88c1.25,0,3.76,3.45,7.52,10.34.62,0,.94.32.94.94l-.94,1.88c.94.16,5.95,6.43,15.04,18.8,4.07,5.96,7.21,10.03,9.4,12.22v.94l-8.46,8.46c-18.18-25.39-33.54-52.96-46.07-82.74-3.14-5.95-8.78-20.68-16.92-44.19l-7.52-14.1v-1.88c3.13,2.2,5.64,6.9,7.52,14.1h1.88c0-5.33-2.82-11.28-8.46-17.86v-.94c3.76-5.48,6.27-8.3,7.52-8.46Zm-7.52,120.35v1.88h.94v-1.88h-.94ZM493.06,3.76h2.82c3.76.32,5.64,1.26,5.64,2.82v1.88c0,1.26-.63,1.88-1.88,1.88l-1.88-.94c0,2.51-2.51,3.76-7.52,3.76,0-.62-.32-.94-.94-.94,1.41-5.64,2.66-8.46,3.76-8.46Zm-1.88,104.36h2.82v1.88h-2.82v-1.88Zm1.88,122.23v1.88h.94v-1.88h-.94Zm1.88,5.64v1.88h.94v-1.88h-.94Zm11.28-129.75v1.88l-8.46.94v-1.88l8.46-.94Zm-7.52,77.1c1.56,0,2.82,2.51,3.76,7.52h-1.88c0-.62-.63-3.13-1.88-7.52Zm0,62.05v1.88h.94v-1.88h-.94Zm8.46-82.74h1.88v12.22c2.5,13.79,4.7,20.68,6.58,20.68s5.01,8.78,9.4,26.33c1.25,1.57,5.64,12.22,13.16,31.97,4.39,6.9,6.58,11.6,6.58,14.1l-.94,1.88v.94h.94v-1.88c1.25.16,1.88.79,1.88,1.88v2.82c7.83,12.85,17.86,27.27,30.09,43.25,0,2.04-2.82,4.86-8.46,8.46-5.33-5.95-16.92-26.64-34.79-62.05-9.4-21.78-18.18-44.66-26.33-68.63-.79-.47-2.98-5.8-6.58-15.98,2.04,0,4.54,4.7,7.52,14.1l1.88.94v-.94c-2.04-9.56-5.17-16.14-9.4-19.74v-.94c4.39-5.17,6.58-8.3,6.58-9.4Zm-3.76,50.77v1.88h.94v-1.88h-.94Zm9.4-194.62l.94,1.88c-2.35,1.88-5.17,2.82-8.46,2.82l-.94-1.88.94-1.88c1.25.63,2.19.94,2.82.94,2.04-1.25,3.6-1.88,4.7-1.88Zm-3.76-12.22h1.88c1.25.16,1.88.79,1.88,1.88l-1.88.94h-1.88c-1.26,0-1.88-.62-1.88-1.88l1.88-.94Zm-1.88,292.41v1.88h.94v-1.88h-.94Zm.94-193.68h3.76v1.88h-3.76v-1.88Zm28.21-16.92h.94v1.88l-4.7.94-1.88-.94c-2.51,1.26-5.96,1.88-10.34,1.88l-1.88-.94c0,1.26-.63,1.88-1.88,1.88h-3.76c0-.62-.32-1.56-.94-2.82,3.76-1.25,11.91-1.88,24.45-1.88Zm-16.92,61.11h.94v13.16c0,1.26.62,4.39,1.88,9.4h-1.88c0-4.07-2.82-8.77-8.46-14.1,4.07-5.64,6.58-8.46,7.52-8.46Zm-7.52,20.68c1.25,0,2.5,2.82,3.76,8.46h-1.88c-1.26-4.07-1.88-6.89-1.88-8.46Zm.94,69.58v1.88h.94v-1.88h-.94Zm0,35.73v1.88h.94v-1.88h-.94Zm.94-110c3.76,2.98,5.64,7.05,5.64,12.22h-1.88c0-.94-1.26-5.01-3.76-12.22Zm.94-131.63h.94c.62,0,.94.32.94.94l1.88-.94h3.76c.62,0,.94.32.94.94l1.88-.94h23.51c.62,0,.94.32.94.94.62,0,.94-.31.94-.94l4.7.94h7.52c8.15.47,12.22,1.73,12.22,3.76h-1.88l-3.76-.94c-1.26.63-2.2.94-2.82.94,0-.62-.32-.94-.94-.94,0,1.26-.63,1.88-1.88,1.88h-4.7l-3.76-2.82h-3.76l-2.82,1.88h-4.7c-2.67-1.88-5.17-2.82-7.52-2.82-.63,1.88-2.51,2.82-5.64,2.82-.63-1.25-.94-2.19-.94-2.82h-1.88l-4.7.94.94,1.88-1.88.94h-5.64c0-1.56-.63-3.13-1.88-4.7v-.94Zm0,163.6v1.88h.94v-1.88h-.94Zm0,81.8v1.88h.94v-1.88h-.94Zm.94-174.88h1.88v1.88h-1.88v-1.88Zm0,95.9v1.88h.94v-1.88h-.94Zm.94,47.95v1.88h.94v-1.88h-.94Zm9.4-229.41h.94v.94c-.94,0-2.2.63-3.76,1.88h-1.88c-1.26,0-1.88-.62-1.88-1.88l6.58-.94Zm-4.7,155.13h1.88c.47,7.52,2.35,11.28,5.64,11.28v1.88h-.94l-1.88-.94v1.88c.62,1.26.94,2.2.94,2.82h.94v-1.88h.94c.94.79,5.64,14.26,14.1,40.43l15.04,32.91-.94,1.88v.94h.94v-1.88c1.72,0,3.6,3.76,5.64,11.28,0,1.57,6.27,10.34,18.8,26.33,0,.94,1.56,3.45,4.7,7.52-2.98,4.39-6.11,6.58-9.4,6.58-8.93-15.04-18.65-33.53-29.15-55.47-8.78-18.49-17.86-43.25-27.27-74.28-1.26,0-1.88-1.88-1.88-5.64h2.82l-.94-4.7v-.94Zm.94-18.8c1.41,0,2.66,2.82,3.76,8.46h-1.88c-1.26-4.07-1.88-6.89-1.88-8.46Zm0,65.81v.94c.62,1.26.94,2.2.94,2.82h.94v-.94c-.63-1.25-.94-2.19-.94-2.82h-.94Zm6.58-82.74h.94v12.22h-.94c-.94,0-2.51-1.88-4.7-5.64v-.94c2.35-3.76,3.92-5.64,4.7-5.64Zm-4.7,12.22c5.01,5.49,7.52,11.13,7.52,16.92h.94v-2.82h1.88c0,2.98,2.19,7.99,6.58,15.04,5.64,21.31,13.79,42,24.45,62.05l-.94,1.88c.78,0,2.66,2.51,5.64,7.52-.63,1.1-.94,2.35-.94,3.76l1.88-.94,1.88,2.82-.94,1.88,25.39,34.79c-2.67,8.15-5.49,12.22-8.46,12.22h-1.88c0-1.41-1.57-4.23-4.7-8.46l.94-1.88c-3.76-1.88-7.84-10.34-12.22-25.38-4.23,0-14.57-24.13-31.03-72.4l-15.98-47.01Zm6.58-9.4h1.88v2.82c-1.26,0-1.88-.62-1.88-1.88v-.94Zm4.7-36.67c1.25.63,2.19.94,2.82.94,0-.62.31-.94.94-.94l.94,1.88v1.88h-.94l-6.58-.94v-1.88c.62,0,1.56-.31,2.82-.94Zm-2.82,39.49c1.41,0,2.66,3.14,3.76,9.4h-1.88c-1.26-5.01-1.88-8.15-1.88-9.4Zm10.34-20.69v10.34c0,3.45,2.19,12.54,6.58,27.27h.94v-2.82h.94c1.88,2.67,7.52,17.08,16.92,43.25l20.68,38.55c.62,1.26.94,2.2.94,2.82-.63,0-.94.32-.94.94,4.54,2.67,7.99,7.05,10.34,13.16,1.25,0,5.64,5.64,13.16,16.92-3.29,7.37-7.37,13.63-12.22,18.8-2.35-2.03-9.25-13.63-20.69-34.79-9.4-19.43-20.06-45.75-31.97-78.98-3.14-10.81-4.7-17.71-4.7-20.68-1.88,0-5.02-6.89-9.4-20.68,5.01,5.8,7.52,11.13,7.52,15.98h.94c0-.62.31-1.56.94-2.82,0-5.48-2.82-11.44-8.46-17.86v-.94c0-.78,2.82-3.6,8.46-8.46Zm-4.7-104.36h4.7v1.88h-.94c-.63,0-.94-.31-.94-.94l-1.88.94h-.94v-1.88Zm.94,241.63v1.88h.94v-1.88h-.94Zm4.7-21.62v1.88h.94v-1.88h-.94Zm.94-110.95h1.88c2.5,6.27,3.76,10.03,3.76,11.28h-1.88c0-.62-1.26-4.39-3.76-11.28Zm1.88-4.7h.94c5.64,5.96,8.46,11.91,8.46,17.86h-.94c-.79,0-2.67-4.39-5.64-13.16-.63,0-1.57-1.25-2.82-3.76v-.94Zm0,120.35v1.88h.94v-1.88h-.94Zm1.88-129.75l-.94,1.88v.94h.94c0-1.25.62-1.88,1.88-1.88v-.94h-1.88Zm0,134.45v1.88h.94v-1.88h-.94Zm2.82-137.27v1.88h.94v-1.88h-.94Zm0,53.59v1.88h.94v-1.88h-.94Zm8.46-52.65h1.88c2.5,6.11,3.76,9.56,3.76,10.34h-1.88c0-.78-1.26-4.23-3.76-10.34Zm1.88-5.64c2.82,0,5.64,5.02,8.46,15.04h1.88v-.94l-.94-4.7c1.25,0,1.88-.94,1.88-2.82h1.88c0,4.08,2.19,9.4,6.58,15.98v1.88l1.88-.94h.94c3.13,11.44,6.58,20.53,10.34,27.27l-1.88,2.82c3.13,0,6.89,6.27,11.28,18.8,11.91,18.8,17.86,29.46,17.86,31.97v.94l1.88-.94,1.88,2.82-.94,1.88c1.25.16,1.88.79,1.88,1.88v10.34l-1.88,8.46h-1.88l-6.58-12.22c-10.81-14.73-24.92-44.19-42.31-88.38-4.39-13.16-8.46-22.25-12.22-27.27v-1.88Zm6.58,102.48v1.88h.94v-1.88h-.94Zm5.64-111.89h1.88c2.5,6.11,3.76,9.56,3.76,10.34h-1.88c-2.51-6.11-3.76-9.56-3.76-10.34Zm0,122.23v1.88h.94v-1.88h-.94Zm.94-49.83v1.88h.94v-1.88h-.94Zm1.88,54.53v1.88h.94v-1.88h-.94Zm2.82,4.7v1.88h.94v-1.88h-.94Zm2.82-90.26v1.88h.94v-1.88h-.94Zm1.88,1.88v1.88h.94v-1.88h-.94Zm6.58-58.29c1.25.16,1.88.79,1.88,1.88v1.88h-1.88v-3.76Zm10.34,97.78v1.88h.94v-1.88h-.94Zm6.58,11.28v1.88h.94v-1.88h-.94Zm4.7-30.09v1.88h.94v-1.88h-.94Zm.94,2.82v1.88h.94v-1.88h-.94Zm1.88,38.55v1.88l1.88.94c-.63-1.25-.94-2.19-.94-2.82h-.94Z"/>
      <g>
        <path class="cls-1" d="m.47,542.6h28.34c16.72,0,27.49,8.6,27.49,23.24v.19c0,15.59-12,23.81-28.43,23.81h-9.07v18.89H.47v-66.13Zm27.02,32.87c6.52,0,10.49-3.4,10.49-8.6v-.19c0-5.67-3.97-8.69-10.58-8.69h-8.6v17.48h8.69Z"/>
        <path class="cls-1" d="m121.1,542.6h18.42v66.13h-18.42v-66.13Z"/>
        <path class="cls-1" d="m208.28,542.6h17.1l27.21,34.95v-34.95h18.14v66.13h-16.06l-28.25-36.28v36.28h-18.14v-66.13Z"/>
        <path class="cls-1" d="m339.11,542.6h17.1l27.21,34.95v-34.95h18.14v66.13h-16.06l-28.25-36.28v36.28h-18.14v-66.13Z"/>
        <path class="cls-1" d="m492.8,542.13h17.67l28.15,66.6h-19.65l-4.82-11.81h-25.51l-4.72,11.81h-19.27l28.15-66.6Zm16.06,40.53l-7.37-18.8-7.46,18.8h14.83Z"/>
        <path class="cls-1" d="m595.2,575.86v-.19c0-19.27,14.83-34.39,34.86-34.39,13.51,0,22.2,5.67,28.06,13.79l-13.79,10.67c-3.78-4.72-8.12-7.75-14.45-7.75-9.26,0-15.78,7.84-15.78,17.48v.19c0,9.92,6.52,17.67,15.78,17.67,6.9,0,10.96-3.21,14.93-8.03l13.79,9.82c-6.23,8.6-14.64,14.93-29.28,14.93-18.89,0-34.1-14.45-34.1-34.2Z"/>
        <path class="cls-1" d="m723.1,542.6h18.33v50.07h32.02v16.06h-50.35v-66.13Z"/>
        <path class="cls-1" d="m837.96,542.6h53.19v15.59h-35.05v10.01h31.74v14.45h-31.74v10.49h35.52v15.59h-53.66v-66.13Z"/>
      </g>
      <g>
        <path class="cls-2" d="m18.44,680.57c-.43.93-1.04,1.72-1.82,2.35-.78.63-1.71,1.12-2.78,1.45-1.08.33-2.27.5-3.59.5-1.84,0-3.65-.32-5.42-.95-1.77-.63-3.38-1.61-4.83-2.93l3.14-3.77c1.1.9,2.24,1.62,3.4,2.15,1.16.53,2.43.8,3.82.8,1.11,0,1.96-.2,2.57-.61.61-.4.92-.96.92-1.68v-.07c0-.35-.06-.65-.19-.92-.13-.26-.37-.51-.73-.74s-.85-.46-1.49-.69c-.63-.23-1.46-.47-2.47-.73-1.22-.3-2.33-.63-3.32-1-.99-.37-1.84-.83-2.53-1.37-.69-.54-1.23-1.22-1.61-2.03s-.57-1.81-.57-3.01v-.07c0-1.11.21-2.11.62-2.99.41-.89.99-1.66,1.73-2.3.74-.65,1.63-1.14,2.66-1.49s2.17-.52,3.41-.52c1.77,0,3.4.27,4.89.79,1.49.53,2.85,1.29,4.09,2.29l-2.76,4.02c-1.08-.74-2.14-1.32-3.18-1.75-1.04-.43-2.07-.64-3.11-.64s-1.81.2-2.33.61c-.52.4-.78.91-.78,1.51v.07c0,.39.07.73.22,1.02s.42.55.81.78c.39.23.93.45,1.61.66.68.21,1.54.45,2.58.73,1.22.32,2.31.69,3.27,1.09.96.4,1.77.89,2.42,1.46.66.57,1.15,1.23,1.49,1.99.33.76.5,1.67.5,2.73v.07c0,1.2-.22,2.27-.65,3.2Z"/>
        <path class="cls-2" d="m37.78,684.54v-24.23h5.32v24.23h-5.32Z"/>
        <path class="cls-2" d="m80.48,683.83c-1.72.75-3.68,1.12-5.89,1.12-1.89,0-3.61-.31-5.16-.94s-2.89-1.49-4.01-2.6-1.99-2.42-2.61-3.95c-.62-1.52-.93-3.18-.93-4.98v-.07c0-1.73.32-3.35.95-4.86s1.51-2.84,2.64-3.98c1.13-1.14,2.46-2.04,4.01-2.7,1.54-.66,3.23-.99,5.08-.99,1.08,0,2.07.08,2.95.23.89.15,1.71.36,2.47.64.76.28,1.47.62,2.14,1.04s1.31.89,1.93,1.42l-3.35,4.05c-.46-.39-.92-.74-1.38-1.04-.46-.3-.94-.55-1.43-.76-.5-.21-1.03-.37-1.61-.49-.58-.12-1.21-.17-1.9-.17-.97,0-1.87.2-2.71.61-.84.4-1.58.95-2.21,1.63-.63.68-1.13,1.48-1.48,2.39-.36.91-.54,1.89-.54,2.93v.07c0,1.11.18,2.13.54,3.07.36.94.86,1.75,1.52,2.45.66.69,1.43,1.23,2.31,1.61.89.38,1.87.57,2.95.57,1.98,0,3.65-.49,5.01-1.46v-3.49h-5.35v-4.6h10.5v10.52c-1.24,1.06-2.72,1.97-4.44,2.72Z"/>
        <path class="cls-2" d="m120.79,684.54l-11.71-15.4v15.4h-5.25v-24.23h4.9l11.33,14.92v-14.92h5.25v24.23h-4.52Z"/>
        <path class="cls-2" d="m162.92,684.54l-2.21-5.43h-10.22l-2.21,5.43h-5.42l10.36-24.4h4.9l10.36,24.4h-5.56Zm-7.32-18l-3.21,7.86h6.42l-3.21-7.86Z"/>
        <path class="cls-2" d="m196.97,665.22v19.32h-5.32v-19.32h-7.35v-4.92h20.03v4.92h-7.36Z"/>
        <path class="cls-2" d="m242.15,678.79c-.5,1.36-1.2,2.5-2.12,3.41-.92.91-2.04,1.59-3.35,2.04-1.31.45-2.77.68-4.39.68-3.25,0-5.8-.9-7.67-2.7-1.86-1.8-2.8-4.49-2.8-8.07v-13.85h5.32v13.71c0,1.99.46,3.48,1.38,4.48.92,1,2.2,1.51,3.83,1.51s2.91-.48,3.83-1.45,1.38-2.42,1.38-4.36v-13.88h5.32v13.67c0,1.85-.25,3.45-.74,4.81Z"/>
        <path class="cls-2" d="m276.81,684.54l-5.18-7.75h-4.18v7.75h-5.32v-24.23h11.05c2.88,0,5.12.7,6.72,2.11,1.6,1.41,2.4,3.37,2.4,5.88v.07c0,1.96-.48,3.56-1.43,4.79s-2.2,2.14-3.75,2.72l5.9,8.65h-6.22Zm.1-15.96c0-1.15-.37-2.02-1.1-2.6-.74-.58-1.76-.87-3.07-.87h-5.28v6.96h5.39c1.31,0,2.32-.31,3.02-.94.7-.62,1.05-1.45,1.05-2.49v-.07Z"/>
        <path class="cls-2" d="m300.91,684.54v-24.23h18.2v4.74h-12.95v4.92h11.4v4.74h-11.4v5.09h13.12v4.74h-18.37Z"/>
        <path class="cls-2" d="m377.15,684.54v-9.73h-9.81v9.73h-5.32v-24.23h5.32v9.59h9.81v-9.59h5.32v24.23h-5.32Z"/>
        <path class="cls-2" d="m425.74,677.29c-.64,1.51-1.54,2.84-2.68,3.98-1.14,1.14-2.5,2.04-4.08,2.7-1.58.66-3.3.99-5.16.99s-3.58-.33-5.15-.99-2.92-1.55-4.06-2.67-2.03-2.43-2.66-3.95c-.63-1.51-.95-3.13-.95-4.86v-.07c0-1.73.32-3.35.97-4.86s1.54-2.84,2.68-3.98c1.14-1.14,2.5-2.04,4.08-2.7,1.58-.66,3.3-.99,5.16-.99s3.58.33,5.15.99c1.57.66,2.92,1.55,4.06,2.67s2.03,2.44,2.66,3.95c.63,1.51.95,3.13.95,4.86v.07c0,1.73-.32,3.35-.97,4.86Zm-4.59-4.86c0-1.04-.18-2.02-.54-2.94-.36-.92-.86-1.73-1.52-2.42-.66-.69-1.43-1.24-2.33-1.64-.9-.4-1.88-.61-2.93-.61s-2.07.2-2.95.59c-.89.39-1.65.94-2.28,1.63-.63.69-1.13,1.49-1.48,2.41-.36.91-.54,1.89-.54,2.92v.07c0,1.04.18,2.02.54,2.94.36.92.86,1.73,1.52,2.42s1.43,1.24,2.31,1.64c.89.4,1.87.61,2.95.61s2.04-.2,2.94-.59,1.66-.94,2.3-1.63c.63-.69,1.13-1.49,1.49-2.41.36-.91.54-1.89.54-2.92v-.07Z"/>
        <path class="cls-2" d="m464.17,684.54v-15.82l-6.8,10.35h-.14l-6.73-10.25v15.71h-5.25v-24.23h5.73l6.35,10.25,6.35-10.25h5.73v24.23h-5.25Z"/>
        <path class="cls-2" d="m489.04,684.54v-24.23h18.2v4.74h-12.95v4.92h11.4v4.74h-11.4v5.09h13.12v4.74h-18.37Z"/>
        <path class="cls-2" d="m542.81,680.57c-.43.93-1.04,1.72-1.82,2.35-.78.63-1.71,1.12-2.78,1.45-1.08.33-2.27.5-3.59.5-1.84,0-3.65-.32-5.42-.95-1.77-.63-3.38-1.61-4.83-2.93l3.14-3.77c1.1.9,2.24,1.62,3.4,2.15,1.16.53,2.43.8,3.82.8,1.11,0,1.96-.2,2.57-.61.61-.4.92-.96.92-1.68v-.07c0-.35-.06-.65-.19-.92-.13-.26-.37-.51-.73-.74s-.85-.46-1.49-.69c-.63-.23-1.46-.47-2.47-.73-1.22-.3-2.33-.63-3.32-1-.99-.37-1.84-.83-2.53-1.37-.69-.54-1.23-1.22-1.61-2.03s-.57-1.81-.57-3.01v-.07c0-1.11.21-2.11.62-2.99.41-.89.99-1.66,1.73-2.3.74-.65,1.63-1.14,2.66-1.49s2.17-.52,3.41-.52c1.77,0,3.4.27,4.89.79,1.49.53,2.85,1.29,4.09,2.29l-2.76,4.02c-1.08-.74-2.14-1.32-3.18-1.75-1.04-.43-2.07-.64-3.11-.64s-1.81.2-2.33.61c-.52.4-.78.91-.78,1.51v.07c0,.39.07.73.22,1.02s.42.55.81.78c.39.23.93.45,1.61.66.68.21,1.54.45,2.58.73,1.22.32,2.31.69,3.27,1.09.96.4,1.77.89,2.42,1.46.66.57,1.15,1.23,1.49,1.99.33.76.5,1.67.5,2.73v.07c0,1.2-.22,2.27-.65,3.2Z"/>
        <path class="cls-2" d="m605.94,680.8c-.42.83-1.03,1.52-1.83,2.08-.79.55-1.75.97-2.86,1.25-1.12.28-2.35.42-3.71.42h-11.48v-24.23h11.2c2.48,0,4.43.57,5.84,1.7,1.41,1.13,2.12,2.65,2.12,4.57v.07c0,.69-.09,1.3-.26,1.83-.17.53-.4,1.01-.69,1.44-.29.43-.62.8-1,1.12-.38.32-.78.6-1.22.83,1.4.53,2.5,1.25,3.3,2.16.8.91,1.2,2.18,1.2,3.79v.07c0,1.11-.21,2.08-.64,2.91Zm-5.96-13.33c0-.81-.3-1.42-.9-1.85s-1.46-.64-2.59-.64h-5.25v5.12h4.9c1.17,0,2.11-.2,2.8-.61.69-.4,1.04-1.06,1.04-1.96v-.07Zm1.35,9.69c0-.81-.31-1.45-.93-1.92-.62-.47-1.62-.71-3-.71h-6.15v5.33h6.32c1.17,0,2.09-.21,2.76-.64.67-.43,1-1.09,1-1.99v-.07Z"/>
        <path class="cls-2" d="m636.94,674.88v9.66h-5.32v-9.55l-9.29-14.68h6.22l5.77,9.73,5.87-9.73h6.04l-9.29,14.57Z"/>
      </g>
      <g>
        <path class="cls-2" d="m691.54,667.21c0-5.49.03-10.98-.06-16.47,0-.39-.8-1.08-1.24-1.1-3.6-.12-8.33,3.1-9.39,6.57-.24.79.32,2.5.94,2.76,1.58.65,1.94,1.73,1.21,2.82-.71,1.05-2.01,2.32-3.11,2.39-4.05.25-7.21-4.77-5.82-8.68,1.7-4.78,5.65-7.26,9.71-9.58,1.98-1.13,4.2-1.84,6.2-2.94.7-.38,1.21-1.28,1.57-2.06.44-.95.34-2.3,1-2.95.82-.8,2.25-1.55,3.26-1.39.83.13,2,1.61,2.05,2.54.12,2.19,1.2,2.02,2.72,1.78,6.2-.99,12.19-.2,17.98,2.22,10.31,4.31,12,15.11,3.52,22.59-3.98,3.51-8.74,5.61-13.71,7.17-3.27,1.03-6.66,1.68-10.02,2.37-1.27.26-1.76.74-1.81,2.09-.36,9.03-.81,18.05-1.24,27.08-.03.68.1,1.64-.29,1.99-.87.81-2.02,1.33-3.05,1.96-.51-.92-1.49-1.85-1.47-2.76.22-9.49.56-18.98.98-28.47.08-1.78-.26-2.7-2.12-3.35-4.89-1.73-6.97-8.34-3.85-12.07.61-.73,2.05-.76,3.11-1.11.23.75.49,1.49.69,2.25.41,1.53.8,3.07,1.2,4.61.34-.09.69-.17,1.03-.26m5.44,2.65c1.31-.17,2.22-.25,3.11-.41,6.4-1.13,12.44-3.28,17.54-7.35,6.02-4.8,4.86-11.43-2.27-14.21-4.88-1.91-9.94-1.13-14.96-1.11-2.07.01-2.8.98-2.87,2.91-.14,4.2-.41,8.39-.54,12.59-.08,2.43-.01,4.86-.01,7.58"/>
        <path class="cls-2" d="m748.12,690.16c-2.64,1.19-4.83,2.68-7.23,3.16-3.91.78-6.3-1.2-6.94-5.12-.3-1.81-.23-3.67-.59-5.46-.14-.72-.98-1.29-1.5-1.93-.52.43-1.31.75-1.53,1.3-1.73,4.3-5.03,7-9,9.04-.6.31-1.42.84-1.89.65-1.1-.45-2.39-1.05-2.98-1.99-.89-1.4.54-2.12,1.56-2.79,2.13-1.42,4.51-2.58,6.3-4.34,1.54-1.52,3.06-3.62.3-5.79-.48-.37-.42-1.95-.05-2.71.31-.64,1.5-1.35,2.15-1.22,1.45.27,1.93-.47,2.44-1.48.8-1.58,2.03-1.87,3.66-1.32,1.68.57,1.89,1.61,1.62,3.23-.12.73.45,2,1.08,2.34,2.14,1.16,3.11,2.74,3.01,5.17-.07,1.6-.02,3.27.39,4.79.31,1.13,1.17,2.79,2,2.92,1.04.17,2.66-.69,3.37-1.62,2.41-3.15,1.96-6.94,1.81-10.61-.01-.3-.13-.6-.16-.9-.22-1.91.64-3.25,2.48-3.51,1.93-.27,3.03,1.02,3.17,2.84.22,2.9.23,5.81.34,8.72.03.69.04,1.39.18,2.05.42,1.9,1.76,2.57,3.61,1.84,4.62-1.81,7.2-5.59,9.04-9.86.94-2.19,1.19-4.68,1.67-7.06.26-1.3-.29-2.04-1.73-1.98-1.84.08-3.61-.29-3.49-2.56.1-1.94,1.59-2.63,3.46-2.44,1.49.15,1.8-.71,1.79-1.98-.01-3.52-.17-7.07.15-10.56.12-1.26,1.16-2.85,2.26-3.52,1.85-1.14,3.96.26,3.96,2.47,0,3.75-.08,7.5-.39,11.23-.15,1.81.19,2.43,2.1,2.41,11.03-.08,22.06-.04,33.1-.08,2.76,0,5.42-.34,7.88-1.96.67-.44,2.34.08,3.18.69.41.29.28,2.01-.18,2.7-1.54,2.31-3.92,3.46-6.65,3.48-12.03.11-24.05.13-36.08.17-3.64.01-3.65,0-3.82,3.61-.3,6.58-.57,13.16-.88,19.73-.07,1.45-.32,2.82-2.27,2.78-1.43-.03-2.36-.56-2.35-2.16.01-2.34,0-4.68,0-7.34-2.71,2.22-5,4.15-7.36,5.99-.84.65-1.83,1.1-2.79,1.58-2.4,1.18-4.95.73-6.94-1.21-.59-.58-1.12-1.23-1.25-1.38"/>
        <path class="cls-2" d="m818.97,683.21c-1.21,1.7-2.42,3.4-3.64,5.1-.94,1.3-1.78,2.7-2.9,3.82-.58.58-1.66.66-2.52.97-.3-.94-.92-1.93-.82-2.83.24-2.14.83-4.25,1.28-6.37-.24-.11-.48-.23-.72-.34-1.2,1.5-2.4,3-3.59,4.51-1.04,1.32-1.99,2.72-3.12,3.96-2.02,2.21-4.53,1.83-5.95-.84-.48-.91-.85-1.88-1.19-2.64-1.91,1.43-3.46,3.16-5.4,3.93-6.53,2.59-12.14-1.53-11.91-8.49.19-5.74,5.97-11.71,11.69-11.9,1.34-.05,2.75.25,4.03.67,1.74.57,2.72,1.83,1.88,3.73-.74,1.66-2.11,2.62-3.89,1.73-3.76-1.88-7.93.97-7.94,5.91,0,3.15,2.37,4.71,5.08,3.14,1.23-.72,2.19-1.99,3.1-3.15.84-1.07,1.29-2.45,2.18-3.46,1.3-1.49,3.4-1.17,4.4.53.69,1.17,1.32,2.39,2.16,3.91,2.1-2.48,3.99-4.74,5.89-6.99,1.48-1.75,3.01-3.45,4.41-5.26,1.07-1.4,2.51-2.13,3.96-1.32.74.41.94,1.96,1.21,3.04.21.84.15,1.75.79,2.8.58-.83,1.13-1.69,1.76-2.48.81-1.01,1.51-2.26,2.57-2.87,1.01-.58,2.47-.75,3.62-.52.47.09.73,1.7.9,2.65.15.85.03,1.74.03,2.61.2.06.4.11.6.17.77-.97,1.51-1.97,2.3-2.91,2.88-3.43,5.24-3.19,7.36.8,1.46,2.76,2.73,5.62,4.29,8.33,2.22,3.87,5.66,5.67,10.15,5.37,1.46-.1,2.77-.07,2.87,1.97.1,2.04-1.05,2.59-2.76,2.92-6.36,1.23-13.6-3.9-16.37-9.54-.74-1.5-1.44-3.02-2.35-4.93-2.17,3.05-4.14,5.89-6.19,8.68-1.17,1.59-2.37,3.18-3.75,4.59-.53.54-1.82,1-2.36.72-.72-.37-1.46-1.51-1.45-2.32.02-1.89.5-3.77.76-5.65.07-.49.01-.99.01-1.49-.14-.07-.28-.15-.42-.22"/>
        <path class="cls-2" d="m836.64,696.13c14.13-.24,30.6-.49,47.07-.87,1.1-.03,2.42-.79,3.22-1.61,1.07-1.1,2.1-1.62,3.39-.83,1.37.84,1.56,2.27.92,3.65-1.21,2.6-3.31,4.25-6.15,4.63-2.27.31-4.58.34-6.87.36-30.8.33-61.6.63-92.39.94-.38,0-.77.01-1.15,0-1.96-.09-3.19-1.05-3.32-3.06-.12-1.82,1.11-2.86,3.31-2.89,11.26-.12,22.52-.23,33.79-.32,5.29-.04,10.57,0,18.2,0"/>
        <path class="cls-2" d="m747.83,670.38c-.69,0-1.43.16-2.05-.04-.78-.25-1.97-.7-2.09-1.25-.19-.88.08-2.16.66-2.84,1.27-1.5,4.37-1.81,6.19-.94,1.41.68,2.34,1.85,1.6,3.28-.43.84-1.74,1.28-2.73,1.74-.44.21-1.05.03-1.59.03h0Z"/>
      </g>
    </g>
  </g>
</svg>